<svg viewBox="0 0 24 24" fill="" class="ico svg-icon ico-cart show-number"><path d="M3 4.75h1.825l.588 5.588.557 5.852A2 2 0 007.961 18h10.077a2 2 0 001.991-1.81l.762-8A2 2 0 0018.801 6H7.198c-.254 0-.497.047-.72.134L6.246 3.92a.75.75 0 00-.746-.67H3v1.5zm4.214 8.675l.032-.004-.34-3.233-.204-2.14a.5.5 0 01.497-.548H18.8a.5.5 0 01.498.547l-.762 8a.5.5 0 01-.498.453H7.961a.5.5 0 01-.497-.453l-.25-2.622z"></path> <path d="M10 13.75a.75.75 0 01.75-.75h4.5a.75.75 0 010 1.5h-4.5a.75.75 0 01-.75-.75zM11 20a1 1 0 11-2 0 1 1 0 012 0zm6 0a1 1 0 11-2 0 1 1 0 012 0z"></path></svg>