<svg xmlns="http://www.w3.org/2000/svg" width="24" height="24" viewBox="0 0 24 24" fill="none" class="svg-icon ico-header-search"><path fill-rule="evenodd" clip-rule="evenodd" d="M16.6918 10.8959C16.6918 14.0969 14.0969 16.6918 10.8959 16.6918C7.69492 16.6918 5.1 14.0969 5.1 10.8959C5.1 7.69492 7.69492 5.1 10.8959 5.1C14.0969 5.1 16.6918 7.69492 16.6918 10.8959ZM15.5294 16.6608C14.2616 17.6812 12.6501 18.2918 10.8959 18.2918C6.81127 18.2918 3.5 14.9806 3.5 10.8959C3.5 6.81127 6.81127 3.5 10.8959 3.5C14.9806 3.5 18.2918 6.81127 18.2918 10.8959C18.2918 12.6501 17.6812 14.2616 16.6608 15.5294L20.5011 19.3697L19.3697 20.5011L15.5294 16.6608Z" fill="black"/></svg>